<svg version="1" xmlns="http://www.w3.org/2000/svg" width="682.667" height="682.667" viewBox="0 0 512.000000 512.000000"><path d="M111.8 176.1L0 288l48.3 48.2c26.5 26.6 69.7 69.8 95.9 96.1L192 480l31.9-31.9 32-32 8.2 5.5c19.4 13 45.3 22.6 68.4 25.2 11.5 1.3 45.7.4 48.4-1.2.3-.2 2.2-.7 4.1-1 1.9-.3 7.5-1.7 12.3-3.1 40.2-11.6 75-39.9 95.5-77.5 9.6-17.7 14.6-32.9 17.7-54.5 1.3-8.9 1.3-37.2.1-44.5-4.6-26.5-14.1-49.9-28.4-70-13.7-19.4-35.9-38.5-56.4-48.7l-9.6-4.8-.1-38.8L416 64l-96.2.1-96.3.1-111.7 111.9zM384 113.6v17.6l-3.7-.7c-9.6-1.8-16-2.2-32.4-2.1l-17.6.1-3.7 2.9c-9.1 6.9-8.5 19.6 1.2 24.5 7.9 4 14.5 5.1 42.2 6.6 4.7.3 9.7.8 11.3 1.1l2.7.6v78.4L288.6 338c-52.5 52.5-95.9 95.6-96.3 95.7-1 .4-146.9-145.4-146.3-146.1.3-.3 43.5-43.5 96-96.1L237.4 96H384v17.6zm41.8 70.1c27 19.3 44.7 46.7 51.8 80.1 2.2 10.3 2.6 34.2.8 44.7-7 39.6-31.2 73.2-66.6 92.4-8.5 4.5-24.3 10.6-30.8 11.8-1.4.2-4.5.9-7 1.5-7.3 1.7-31.3 1.8-42 .1-15.9-2.5-32.7-8.8-47.4-17.6l-5.8-3.5 68.6-68.6L416 256v-39c0-22 .4-39 .9-39s4.5 2.6 8.9 5.7z"/></svg>