<svg version="1.1" xmlns="http://www.w3.org/2000/svg" width="32" height="32" viewBox="0 0 2048 2048">
<title>Tag</title>
<path transform="scale(1, -1) translate(0, -2048)" d="M1664 1483q88 -39 159 -99.5t121 -137t77 -165.5t27 -185q0 -133 -50 -249.5t-137 -203.5t-203.5 -137t-249.5 -50q-104 0 -202.5 32.5t-181.5 95.5l-256 -256l-768 768l896 896h768v-309zM768 309l768 768v315q-18 4 -44 5.5t-54.5 3t-56.5 4.5t-50.5 10.5t-36.5 20.5 t-14 36q0 26 19 45t45 19q49 0 96.5 -1t95.5 -12v141h-587l-768 -768zM1408 384q106 0 199 40.5t162.5 110t110 162.5t40.5 199q0 68 -18 133t-51 122.5t-80.5 105.5t-106.5 82v-315l-548 -548q64 -45 139 -68.5t153 -23.5z"></path>
</svg>